<svg xmlns="http://www.w3.org/2000/svg" viewBox="0 0 512 512"><!--!Font Awesome Free 6.7.1 by @fontawesome - https://fontawesome.com License - https://fontawesome.com/license/free Copyright 2024 Fonticons, Inc.--><path d="M483.6 227.6H462c-50.7 0-76.1-61.3-40.2-97.1L437 115.2A28.4 28.4 0 0 0 396.8 75L381.6 90.2c-35.8 35.8-97.1 10.5-97.1-40.2V28.4a28.5 28.5 0 0 0 -56.9 0V50c0 50.7-61.3 76.1-97.1 40.2L115.2 75A28.4 28.4 0 0 0 75 115.2l15.3 15.3c35.8 35.8 10.5 97.1-40.2 97.1H28.5a28.5 28.5 0 1 0 0 56.9H50c50.7 0 76.1 61.3 40.2 97.1L75 396.8A28.5 28.5 0 0 0 115.2 437l15.2-15.3c35.8-35.8 97.1-10.5 97.1 40.2v21.5a28.5 28.5 0 0 0 56.9 0V462c0-50.7 61.3-76.1 97.1-40.2L396.8 437A28.5 28.5 0 0 0 437 396.8l-15.3-15.2c-35.8-35.8-10.5-97.1 40.2-97.1h21.5a28.5 28.5 0 1 0 0-56.9zM224 272a48 48 0 1 1 48-48A48 48 0 0 1 224 272zm80 56a24 24 0 1 1 24-24A24 24 0 0 1 304 328z"/></svg>